PathFileType	4	(X/Y/Z)	C:/Users/opensim2020/Desktop/walking_exp_matlab/subject06_walking20_straight_04.trc																																																																																																																															
DataRate	CameraRate	NumFrames	NumMarkers	Units	OrigDataRate	OrigDataStartFrame	OrigNumFrames																																																																																																																											
100	100	7	43	mm	100	2158	126																																																																																																																											
Frame#	Time	LFHD			RFHD			LBHD			RBHD			C7			T10			CLAV			STRN			RBAK			LSHO			LUPA			LELB			LFRM			LWRA			LWRB			LFIN			RSHO			RUPA			RELB			RFRM			RWRA			RWRB			RFIN			LASI			RASI			LPSI			RPSI			LTHI			LKNE			LTIB			LANK			LHEE			LTOE			RTHI			RKNE			RTIB			RANK			RHEE			RTOE			*39			*40			*41			*42		
		X1	Y1	Z1	X2	Y2	Z2	X3	Y3	Z3	X4	Y4	Z4	X5	Y5	Z5	X6	Y6	Z6	X7	Y7	Z7	X8	Y8	Z8	X9	Y9	Z9	X10	Y10	Z10	X11	Y11	Z11	X12	Y12	Z12	X13	Y13	Z13	X14	Y14	Z14	X15	Y15	Z15	X16	Y16	Z16	X17	Y17	Z17	X18	Y18	Z18	X19	Y19	Z19	X20	Y20	Z20	X21	Y21	Z21	X22	Y22	Z22	X23	Y23	Z23	X24	Y24	Z24	X25	Y25	Z25	X26	Y26	Z26	X27	Y27	Z27	X28	Y28	Z28	X29	Y29	Z29	X30	Y30	Z30	X31	Y31	Z31	X32	Y32	Z32	X33	Y33	Z33	X34	Y34	Z34	X35	Y35	Z35	X36	Y36	Z36	X37	Y37	Z37	X38	Y38	Z38	X39	Y39	Z39	X40	Y40	Z40	X41	Y41	Z41	X42	Y42	Z42	X43	Y43	Z43
																																																																																																																																		
1	0	-1202.11951	1643.69641	-1485.85327	-1204.90649	1621.38123	-1355.71362	-1337.06738	1594.20557	-1492.75439	-1338.33203	1577.47681	-1365.1897	-1343.81348	1431.40979	-1444.92932	-1393.30664	1104.92651	-1437.0658	-1236.1698	1349.78491	-1448.11975	-1206.73987	1173.05371	-1462.25439	-1423.77722	1263.08069	-1372.42065	-1296.34717	1389.54041	-1607.25415	-1273.31567	1199.93604	-1701.86841	-1246.73157	1093.75269	-1732.62988	-1145.54688	987.7085	-1769.2334	-1026.28943	933.92029	-1737.77124	-1072.3844	893.80688	-1773.59717	-989.5376	858.16455	-1782.29065	-1278.88281	1378.51062	-1284.2085	-1365.30896	1197.69067	-1198.35864	-1389.73914	1079.40576	-1178.65027	-1415.68787	962.94763	-1153.13025	-1407.89624	809.20251	-1169.45117	-1460.47791	832.73615	-1134.71057	-1453.10742	749.73663	-1124.51904	-1233.80005	942.953	-1561.53735	-1209.34497	942.96118	-1342.19165	-1387.82312	974.90588	-1511.39807	-1358.9884	966.49298	-1345.45496	-1361.63818	645.81421	-1622.47168	-1400.20032	483.87012	-1608.27979	-1516.35889	250.65643	-1605.29614	-1567.42358	83.45095	-1563.02722	-1605.83972	74.65637	-1514.64392	-1432.4707	40.97359	-1581.27283	-1188.13513	614.83911	-1277.06274	-1130.55676	502.78351	-1309.85132	-1072.3905	254.26297	-1323.38696	-1004.48932	82.28124	-1369.79871	-1028.13904	49.15671	-1421.13281	-849.66461	94.69452	-1362.23438	-1302.08801	1680.02734	-1424.96753	NaN	NaN	NaN	NaN	NaN	NaN	NaN	NaN	NaN
2	0.01	-1188.40625	1641.72656	-1487.4054	-1191.11035	1619.69299	-1357.31909	-1323.22595	1591.96643	-1494.43335	-1324.57666	1575.36609	-1366.81116	-1329.88965	1429.21887	-1446.13184	-1379.1936	1102.63184	-1438.26318	-1222.19592	1347.72034	-1449.26953	-1192.63391	1170.953	-1463.40063	-1409.75073	1260.61853	-1374.0824	-1282.56018	1387.36963	-1608.52197	-1258.17432	1198.03064	-1703.18066	-1230.07129	1092.29553	-1734.00476	-1125.62817	990.1347	-1770.37549	-1004.46686	940.93781	-1737.4386	-1048.51111	898.90045	-1773.62305	-964.12823	866.49561	-1781.33032	-1265.09863	1376.49194	-1285.43701	-1352.35059	1196.20215	-1199.53137	-1377.60303	1078.19263	-1179.50891	-1404.96667	962.16254	-1153.58789	-1399.44238	808.13208	-1169.74585	-1451.76624	832.62042	-1134.55493	-1445.82629	749.12378	-1125.05115	-1220.52014	940.89813	-1562.96704	-1194.88904	940.72058	-1343.72461	-1374.20984	972.60852	-1511.94617	-1344.39368	964.427	-1345.93665	-1350.78271	644.62219	-1623.43494	-1391.06714	483.04956	-1609.26477	-1511.99146	252.03003	-1605.44983	-1566.25684	85.80741	-1562.82568	-1604.42212	77.82286	-1514.21997	-1431.95142	40.91777	-1581.29016	-1176.15967	611.96747	-1278.43457	-1118.56787	500.48709	-1310.26855	-1054.16516	253.81282	-1322.45898	-979.11554	83.52846	-1369.27368	-1001.26971	50.30851	-1419.98804	-824.73431	101.41255	-1358.94006	-1288.58044	1677.94861	-1426.76428	NaN	NaN	NaN	NaN	NaN	NaN	NaN	NaN	NaN
3	0.02	-1174.58801	1640.05029	-1488.86218	-1177.45618	1618.16101	-1358.64575	-1309.33887	1589.99561	-1495.92517	-1310.77539	1573.69031	-1368.27307	-1315.86389	1427.43054	-1447.26233	-1364.96338	1100.6416	-1439.37158	-1207.99353	1345.97363	-1450.29529	-1178.45203	1169.14734	-1464.34351	-1395.51135	1258.33044	-1375.39429	-1268.55872	1385.51807	-1609.67432	-1243.01233	1196.35303	-1704.19495	-1213.67041	1090.9856	-1735.01855	-1106.11035	992.17279	-1770.44788	-983.63776	947.73468	-1736.72119	-1025.69324	904.02368	-1773.26746	-940.09821	875.0481	-1780.2157	-1251.11621	1374.76648	-1286.46313	-1339.17932	1195.15332	-1200.50281	-1365.00757	1077.24524	-1180.13513	-1393.87036	961.82117	-1153.76013	-1389.94922	807.40173	-1170.07092	-1441.60474	832.78351	-1134.56543	-1437.29114	748.85077	-1125.41785	-1207.08618	939.09198	-1564.54956	-1180.19556	938.85626	-1345.4386	-1360.30481	970.33594	-1512.31177	-1329.96838	962.77582	-1346.2843	-1339.40491	643.46112	-1624.15576	-1381.23511	482.18192	-1609.99097	-1506.76978	253.40083	-1605.15833	-1564.89746	88.6833	-1562.83557	-1602.9668	81.68916	-1514.08276	-1431.36353	40.64616	-1581.14307	-1162.41418	610.25055	-1279.96655	-1105.05493	499.52109	-1310.78406	-1037.29236	253.31485	-1321.67908	-957.82544	84.9388	-1367.46936	-978.65936	51.11548	-1418.63452	-803.41949	105.8905	-1356.60754	-1274.8634	1676.20215	-1428.34058	NaN	NaN	NaN	NaN	NaN	NaN	NaN	NaN	NaN
4	0.03	-1160.74634	1638.68384	-1490.17017	-1163.62549	1617.1228	-1359.90686	-1295.38538	1588.30835	-1497.15479	-1296.8114	1572.31677	-1369.45459	-1301.61462	1425.96313	-1448.13464	-1350.54211	1098.92395	-1440.35071	-1193.67847	1344.59241	-1451.11353	-1164.13477	1167.70093	-1465.08459	-1381.10681	1256.43274	-1376.27173	-1254.30273	1383.99048	-1610.62964	-1227.89575	1194.93896	-1704.88196	-1197.51526	1089.92383	-1735.62537	-1087.36914	994.24524	-1770.55115	-963.55957	954.36615	-1735.66626	-1003.90649	909.06647	-1772.52368	-917.14539	883.16486	-1778.66846	-1236.94934	1373.41455	-1287.37134	-1325.74915	1194.4884	-1201.31091	-1352.10486	1076.69116	-1180.62427	-1381.73022	961.35248	-1154.15759	-1379.73169	807.06647	-1170.20007	-1431.10706	832.81927	-1134.51563	-1427.52637	748.84235	-1125.73486	-1193.30408	937.31866	-1566.00806	-1165.26733	937.61652	-1346.9375	-1346.13354	968.31024	-1512.64819	-1315.21521	961.5379	-1346.59277	-1327.47656	642.36224	-1624.75354	-1370.78699	481.40244	-1610.76514	-1501.31018	255.43675	-1605.36511	-1563.31079	92.17442	-1563.1925	-1601.29089	86.20341	-1514.40186	-1430.84424	40.62624	-1581.15503	-1146.19958	610.7832	-1280.46094	-1090.0116	499.76901	-1311.75635	-1021.56061	253.23096	-1320.78357	-940.24341	85.34438	-1365.81018	-960.58209	50.97395	-1416.80725	-785.77515	107.54455	-1355.27039	-1261.09363	1674.729	-1429.76611	NaN	NaN	NaN	NaN	NaN	NaN	NaN	NaN	NaN
5	0.04	-1146.78247	1637.59827	-1491.33691	-1149.60803	1616.40625	-1361.01563	-1281.31982	1586.9657	-1498.21875	-1282.71045	1571.27136	-1370.46545	-1287.14709	1424.83386	-1448.849	-1335.89844	1097.63464	-1441.33936	-1179.16943	1343.49976	-1451.72888	-1149.59656	1166.56519	-1465.74805	-1366.5553	1255.05554	-1376.84607	-1239.80396	1382.80652	-1611.35815	-1212.80994	1193.80725	-1705.23767	-1181.67834	1089.00903	-1735.71729	-1069.35144	996.25323	-1769.99866	-944.72467	960.62341	-1734.48059	-983.11792	913.91406	-1771.33081	-895.51538	891.19049	-1777.02112	-1222.93115	1372.45032	-1288.34436	-1312.01917	1194.18481	-1201.85364	-1338.91589	1076.41443	-1180.89246	-1369.37878	961.61725	-1153.82898	-1368.39001	806.99805	-1170.29846	-1419.15295	833.16882	-1134.51025	-1416.65808	748.93854	-1125.74414	-1179.27026	935.77209	-1567.29077	-1150.27673	936.90894	-1348.03308	-1331.54651	966.54126	-1512.86658	-1300.47559	960.7998	-1346.89856	-1314.8092	641.42291	-1625.125	-1359.79736	480.91986	-1611.21265	-1495.06604	257.70703	-1605.62024	-1561.28345	96.17971	-1563.73242	-1599.36169	91.40485	-1515.12476	-1430.37732	40.54942	-1581.1012	-1128.61841	611.74127	-1280.52783	-1073.27441	500.92349	-1312.19397	-1006.46948	253.3407	-1319.8855	-926.33209	84.67079	-1364.56494	-946.9989	49.97713	-1415.23181	-771.86163	106.36791	-1354.70752	-1247.21631	1673.62854	-1431.03418	NaN	NaN	NaN	NaN	NaN	NaN	NaN	NaN	NaN
6	0.05	-1132.74817	1636.90796	-1492.41956	-1135.50415	1616.05054	-1361.94299	-1267.18164	1585.92175	-1499.04346	-1268.4635	1570.57837	-1371.25549	-1272.61755	1424.03442	-1449.38	-1321.11633	1096.72278	-1442.18689	-1164.40283	1342.83325	-1452.31042	-1134.82422	1165.7782	-1466.198	-1351.85571	1254.22437	-1377.20081	-1225.0896	1381.99304	-1611.89453	-1197.76416	1192.99597	-1705.33069	-1166.11243	1088.35474	-1735.49402	-1051.92737	998.22968	-1769.20862	-926.70288	966.5318	-1732.99426	-963.03448	918.23517	-1769.35864	-875.0675	898.6897	-1775.13513	-1208.14294	1371.81543	-1288.92346	-1297.89575	1194.12585	-1202.27124	-1325.22766	1076.43066	-1180.98425	-1356.21021	961.68585	-1154.05823	-1355.99133	807.0257	-1170.23462	-1406.49817	833.57635	-1134.27222	-1404.85437	749.26971	-1125.68872	-1164.67883	934.39221	-1568.10693	-1134.95142	936.9101	-1348.70239	-1316.55469	965.21051	-1513.12805	-1285.47803	960.65344	-1347.36743	-1301.44727	640.59235	-1625.30762	-1347.99304	480.5108	-1611.73987	-1488.18286	260.4592	-1605.84253	-1559.08447	101.07589	-1564.74365	-1597.24658	97.5386	-1515.97119	-1429.99524	40.54328	-1581.15686	-1109.6958	613.85107	-1279.97644	-1055.11816	502.79294	-1312.30359	-992.04211	253.3065	-1318.99878	-915.6731	82.99229	-1363.87769	-937.28741	48.29445	-1414.2439	-761.27679	102.47397	-1354.67896	-1233.2428	1672.84558	-1432.14099	NaN	NaN	NaN	NaN	NaN	NaN	NaN	NaN	NaN
7	0.06	-1118.63354	1636.57727	-1493.25195	-1121.26953	1616.05957	-1362.75208	-1252.91797	1585.23779	-1499.74902	-1254.16528	1570.22253	-1372.01624	-1257.92664	1423.53577	-1449.73474	-1305.96167	1096.17627	-1442.85986	-1149.59082	1342.47534	-1452.63831	-1119.78284	1165.41138	-1466.47974	-1336.90527	1253.86646	-1377.38843	-1210.21021	1381.48035	-1612.15198	-1182.74084	1192.54321	-1705.15125	-1150.94849	1088.02625	-1735.01135	-1035.21167	1000.16986	-1768.17725	-909.526	972.03308	-1731.20032	-944.65881	922.96527	-1767.85815	-855.7887	905.6557	-1772.96667	-1193.17249	1371.57324	-1289.29517	-1283.50989	1194.23279	-1202.47485	-1311.11877	1076.69861	-1180.91138	-1342.34607	961.83936	-1154.11304	-1342.57104	807.31689	-1169.96057	-1393.2301	834.09094	-1133.823	-1391.66858	749.68884	-1125.53723	-1149.56396	933.35278	-1568.4812	-1119.32935	937.40802	-1348.90222	-1301.04895	964.29218	-1513.49072	-1270.22021	960.97485	-1347.96619	-1287.45239	639.87897	-1625.37744	-1335.33813	480.259	-1612.17078	-1480.92578	263.87604	-1606.65393	-1556.27368	106.37117	-1565.63367	-1594.61499	104.39067	-1517.06812	-1429.74353	40.60666	-1581.19446	-1090.31482	616.76324	-1279.28674	-1036.94202	505.3837	-1312.02661	-978.66351	253.01617	-1318.16028	-908.07281	80.69436	-1363.40295	-930.84375	46.17141	-1413.75366	-753.64923	96.63081	-1355.0304	-1219.17188	1672.40491	-1433.08569	NaN	NaN	NaN	NaN	NaN	NaN	NaN	NaN	NaN
